<?xml version="1.0" encoding="utf-8"?>
<svg xmlns="http://www.w3.org/2000/svg" xmlns:xlink="http://www.w3.org/1999/xlink" version="1.1" id="Layer_1" x="0px" y="0px" viewBox="0 0 24 24" style="enable-background:new 0 0 24 24;" xml:space="preserve">
<style type="text/css">
	.st0{fill:none;stroke:#303C42;stroke-linecap:round;stroke-linejoin:round;}
</style>
<title>Heart</title>
<g id="Heart">
	<g id="_Group_">
		<path id="_Path_" class="st0" d="M5,8.5c-1.1,0-1.5,3.2-1.5,5.5s2.1,8.5,10,8.5c0.7,0,2.2,1,4.5,1s2.5-2.4,2.5-5.5s-1-5.8-3-6.5    c0-0.8-1.6-3.5-2.5-3.5s-3.7,1.5-5.5,1.5S7,8.5,5,8.5z" style="fill: none; stroke: #303C42; stroke-linecap: round; stroke-linejoin: round;"/>
		<path id="_Path_2" class="st0" d="M5,8.5C4.7,7.7,4.5,6.9,4.5,6c0-1.4-0.3-2.5,1.5-2.5h2.5" style="fill: none; stroke: #303C42; stroke-linecap: round; stroke-linejoin: round;"/>
		<path id="_Path_3" class="st0" d="M17.5,11.5c-2.7,0-3,1.2-3,3s-1,2.5-1,4.5v3.5" style="fill: none; stroke: #303C42; stroke-linecap: round; stroke-linejoin: round;"/>
		<path id="_Path_4" class="st0" d="M9.5,9.5C9.5,12.1,5,15,5,18" style="fill: none; stroke: #303C42; stroke-linecap: round; stroke-linejoin: round;"/>
		<path id="_Path_5" class="st0" d="M7.5,9c0-3.3,2-6,0.5-7.5l1-1L10.5,2L11,0.5h1.5v2C13.6,4.1,14.2,6,14,8" style="fill: none; stroke: #303C42; stroke-linecap: round; stroke-linejoin: round;"/>
		<path id="_Path_6" class="st0" d="M10.5,9c0-1.3-0.5-1.2-0.5-2.5s0.2-2,1-2S12.1,7.4,10.5,9z" style="fill: none; stroke: #303C42; stroke-linecap: round; stroke-linejoin: round;"/>
		<path id="_Path_7" class="st0" d="M4.5,18v4.5c0.4,0.8,1.3,1.2,2.1,0.9c0.4-0.2,0.7-0.5,0.9-0.9V21" style="fill: none; stroke: #303C42; stroke-linecap: round; stroke-linejoin: round;"/>
	</g>
</g>

	<metadata>
		<rdf:RDF xmlns:rdf="http://www.w3.org/1999/02/22-rdf-syntax-ns#" xmlns:rdfs="http://www.w3.org/2000/01/rdf-schema#" xmlns:dc="http://purl.org/dc/elements/1.1/">
			<rdf:Description about="https://iconscout.com/legal#licenses" dc:title="heart; organ; health; anatomy; medical" dc:description="heart; organ; health; anatomy; medical" dc:publisher="Iconscout" dc:date="2017-02-16" dc:format="image/svg+xml" dc:language="en">
				<dc:creator>
					<rdf:Bag>
						<rdf:li>Alpár - Etele Méder</rdf:li>
					</rdf:Bag>
				</dc:creator>
			</rdf:Description>
		</rdf:RDF>
    </metadata></svg>
