<svg xmlns="http://www.w3.org/2000/svg" viewBox="0 0 24 24" style="enable-background:new 0 0 24 24"><defs><style type="text/css">.st0{fill:none;stroke:#303c42;stroke-linecap:round;stroke-linejoin:round}</style></defs><g id="Heart"><g id="_Group_"><path id="_Path_" d="M 5 8.5 C 3.9 8.5 3.5 11.7 3.5 14 C 3.5 16.3 5.6 22.5 13.5 22.5 C 14.2 22.5 15.7 23.5 18 23.5 C 20.3 23.5 20.5 21.1 20.5 18 C 20.5 14.9 19.5 12.2 17.5 11.5 C 17.5 10.7 15.9 8 15 8 C 14.1 8 11.495 8.606 9.695 8.606 C 7.895 8.606 7 8.5 5 8.5 Z" class="st0" style="stroke:#303c42;stroke-linecap:round;stroke-linejoin:round;paint-order:fill;fill:transparent"/><path id="_Path_2" d="M 6.953 8.332 C 6.653 7.532 3.83 7.012 3.83 6.112 C 3.83 4.712 4.228 3.472 6.028 3.472 L 8.5 3.5" class="st0" style="stroke:#303c42;stroke-linecap:round;stroke-linejoin:round;paint-order:fill;fill:transparent"/><path id="_Path_3" d="M17.5,11.5c-2.7,0-3,1.2-3,3s-1,2.5-1,4.5v3.5" class="st0" style="stroke:#303c42;stroke-linecap:round;stroke-linejoin:round;paint-order:fill;fill:transparent"/><path id="_Path_4" d="M 9.472 8.942 C 9.472 11.542 5 15 5 18" class="st0" style="stroke:#303c42;stroke-linecap:round;stroke-linejoin:round;paint-order:fill;fill:transparent"/><path id="_Path_5" d="M 7.472 8.497 C 7.472 5.197 9.5 3 8 1.5 L 9 0.5 L 10.5 2 L 11 0.584 L 12.221 0.863 L 12.5 2.5 C 13.6 4.1 14.396 5.916 14.196 7.916" class="st0" style="stroke-linecap:round;stroke-linejoin:round;paint-order:fill;fill:transparent"/><path id="_Path_6" d="M 10.556 8.553 C 10.556 7.253 10 7.8 10 6.5 C 10 5.2 10.2 4.5 11 4.5 C 11.8 4.5 12.156 6.953 10.556 8.553 Z" class="st0" style="stroke:#303c42;stroke-linecap:round;stroke-linejoin:round;paint-order:fill;fill:transparent"/><path id="_Path_7" d="M4.5,18v4.5c0.4,0.8,1.3,1.2,2.1,0.9c0.4-0.2,0.7-0.5,0.9-0.9V21" class="st0" style="stroke:#303c42;stroke-linecap:round;stroke-linejoin:round;paint-order:fill;fill:transparent"/></g></g></svg>