<?xml version="1.0" encoding="UTF-8" standalone="no"?>
<svg xmlns="http://www.w3.org/2000/svg" id="Gear_1" data-name="Gear 1" viewBox="0 0 24 24"><title>Gear 1</title><path d="M23.5,14.3V9.7L21,9.08a9.43,9.43,0,0,0-.59-1.41l1.31-2.18L18.51,2.24,16.33,3.55A9.43,9.43,0,0,0,14.92,3L14.3.5H9.7L9.08,3a9.43,9.43,0,0,0-1.41.59L5.49,2.24,2.24,5.49,3.55,7.67A9.43,9.43,0,0,0,3,9.08L.5,9.7v4.6L3,14.92a9.43,9.43,0,0,0,.59,1.41L2.24,18.51l3.25,3.25,2.18-1.31A9.43,9.43,0,0,0,9.08,21L9.7,23.5h4.6L14.92,21a9.43,9.43,0,0,0,1.41-.59l2.18,1.31,3.25-3.25-1.31-2.18A9.43,9.43,0,0,0,21,14.92Z" style="fill:none;stroke:#303c42;stroke-linecap:round;stroke-linejoin:round"/><circle cx="12" cy="12" r="5.5" style="fill:none;stroke:#303c42;stroke-linecap:round;stroke-linejoin:round"/>
	<metadata>
		<rdf:RDF xmlns:rdf="http://www.w3.org/1999/02/22-rdf-syntax-ns#" xmlns:rdfs="http://www.w3.org/2000/01/rdf-schema#" xmlns:dc="http://purl.org/dc/elements/1.1/">
			<rdf:Description about="https://iconscout.com/legal#licenses" dc:title="settings; setup; set; gear; mechanic" dc:description="settings; setup; set; gear; mechanic" dc:publisher="Iconscout" dc:date="2017-02-21" dc:format="image/svg+xml" dc:language="en">
				<dc:creator>
					<rdf:Bag>
						<rdf:li>Alpár - Etele Méder</rdf:li>
					</rdf:Bag>
				</dc:creator>
			</rdf:Description>
		</rdf:RDF>
    </metadata></svg>
