<svg xmlns="http://www.w3.org/2000/svg" viewBox="0 0 24 24"><title>Person Location</title><g id="Person_Location" data-name="Person Location"><g id="_Group_" data-name="&lt;Group&gt;"><circle id="_Path_" cx="12" cy="6.5" r="3" data-name="&lt;Path&gt;" style="fill:none;stroke:#303c42;stroke-linecap:round;stroke-linejoin:round"/><path id="_Path_2" d="M12,11.5a11.52,11.52,0,0,0-5.14,1.37A2.51,2.51,0,0,0,5.5,15.11v.46a.93.93,0,0,0,.93.94H17.57a.93.93,0,0,0,.93-.94v-.46a2.51,2.51,0,0,0-1.36-2.23A11.52,11.52,0,0,0,12,11.5Z" data-name="&lt;Path&gt;" style="fill:none;stroke:#303c42;stroke-linecap:round;stroke-linejoin:round"/><path id="_Path_3" d="M21,.5H3A1.5,1.5,0,0,0,1.5,2V18A1.5,1.5,0,0,0,3,19.5H8l4,4,4-4h5A1.5,1.5,0,0,0,22.5,18V2A1.5,1.5,0,0,0,21,.5Z" data-name="&lt;Path&gt;" style="fill:none;stroke:#303c42;stroke-linecap:round;stroke-linejoin:round"/></g></g><metadata><rdf:RDF xmlns:dc="http://purl.org/dc/elements/1.1/" xmlns:rdf="http://www.w3.org/1999/02/22-rdf-syntax-ns#" xmlns:rdfs="http://www.w3.org/2000/01/rdf-schema#"><rdf:Description about="https://iconscout.com/legal#licenses" dc:date="2017-02-16" dc:description="people; user; location; pin" dc:format="image/svg+xml" dc:language="en" dc:publisher="Iconscout" dc:title="people; user; location; pin"><dc:creator><rdf:Bag><rdf:li>Alpár - Etele Méder</rdf:li></rdf:Bag></dc:creator></rdf:Description></rdf:RDF></metadata></svg>